<svg xmlns="http://www.w3.org/2000/svg">
  <symbol id="check" viewBox="0 0 20 20"><path d="m4.5 10.5 3.5 3.5 7.5-8" fill="none" stroke="currentColor" stroke-width="2" stroke-linecap="round" stroke-linejoin="round"/></symbol>
  <symbol id="x" viewBox="0 0 20 20"><path d="m5.5 5.5 9 9M14.5 5.5l-9 9" fill="none" stroke="currentColor" stroke-width="1.8" stroke-linecap="round"/></symbol>
  <symbol id="arrow-right" viewBox="0 0 20 20"><path d="M4 10h11.5M11 5.5l4.5 4.5-4.5 4.5" fill="none" stroke="currentColor" stroke-width="1.8" stroke-linecap="round" stroke-linejoin="round"/></symbol>
  <symbol id="arrow-long" viewBox="0 0 44 44"><path d="M6 22h30M28 13l9 9-9 9" fill="none" stroke="currentColor" stroke-width="2.2" stroke-linecap="round" stroke-linejoin="round"/></symbol>
  <symbol id="download" viewBox="0 0 20 20"><path d="M10 3v10M6 9.5l4 4 4-4M3.5 16.5h13" fill="none" stroke="currentColor" stroke-width="1.8" stroke-linecap="round" stroke-linejoin="round"/></symbol>
  <symbol id="external" viewBox="0 0 20 20"><path d="M11.5 3.5h5v5M16.5 3.5l-7 7M14.5 12v3.5a1 1 0 0 1-1 1h-9a1 1 0 0 1-1-1v-9a1 1 0 0 1 1-1H8" fill="none" stroke="currentColor" stroke-width="1.8" stroke-linecap="round" stroke-linejoin="round"/></symbol>
  <symbol id="menu" viewBox="0 0 20 20"><path d="M3.5 6h13M3.5 10h13M3.5 14h13" fill="none" stroke="currentColor" stroke-width="1.8" stroke-linecap="round"/></symbol>
  <symbol id="info" viewBox="0 0 20 20"><g fill="none" stroke="currentColor" stroke-width="1.8" stroke-linecap="round"><circle cx="10" cy="10" r="7.5"/><path d="M10 9v5M10 6.4v.1"/></g></symbol>
  <symbol id="alert" viewBox="0 0 20 20"><g fill="none" stroke="currentColor" stroke-width="1.8" stroke-linecap="round" stroke-linejoin="round"><path d="M9.1 3.6a1 1 0 0 1 1.8 0l6.6 12a1 1 0 0 1-.9 1.4H3.4a1 1 0 0 1-.9-1.4Z"/><path d="M10 8v4M10 14.4v.1"/></g></symbol>
  <symbol id="ban" viewBox="0 0 20 20"><g fill="none" stroke="currentColor" stroke-width="1.8" stroke-linecap="round"><circle cx="10" cy="10" r="7.5"/><path d="m4.8 15.2 10.4-10.4"/></g></symbol>
  <symbol id="minus" viewBox="0 0 20 20"><g fill="none" stroke="currentColor" stroke-width="1.8" stroke-linecap="round"><circle cx="10" cy="10" r="7.5"/><path d="M6.5 10h7"/></g></symbol>
  <symbol id="page" viewBox="0 0 20 20"><g fill="none" stroke="currentColor" stroke-width="1.7" stroke-linecap="round" stroke-linejoin="round"><path d="M5 2.5h6.5l4 4v11H5Z"/><path d="M11.5 2.5v4h4M7.5 10.5h5M7.5 13.5h5"/></g></symbol>
  <symbol id="tabs" viewBox="0 0 20 20"><g fill="none" stroke="currentColor" stroke-width="1.7" stroke-linecap="round" stroke-linejoin="round"><path d="M2.5 8.5h15v8a1 1 0 0 1-1 1h-13a1 1 0 0 1-1-1Z"/><path d="M2.5 8.5 3.6 4.4a1 1 0 0 1 1-.9h3.8a1 1 0 0 1 1 .9l1 4.1M10.4 6.5l.5-2.1a1 1 0 0 1 1-.9h3.5a1 1 0 0 1 1 .9l1.1 4.1"/></g></symbol>
  <symbol id="windows" viewBox="0 0 20 20"><g fill="none" stroke="currentColor" stroke-width="1.7" stroke-linecap="round" stroke-linejoin="round"><rect x="5.5" y="2.5" width="12" height="10" rx="1.5"/><path d="M5.5 6h12M2.5 7v8a2 2 0 0 0 2 2h9"/></g></symbol>
  <symbol id="region" viewBox="0 0 20 20"><rect x="2.5" y="2.5" width="11" height="11" rx="1.5" fill="none" stroke="currentColor" stroke-width="1.7" stroke-dasharray="2.4 2.1"/><path d="M11 11l6.3 2.3-2.8 1.2-1.2 2.8Z" fill="currentColor" stroke="currentColor" stroke-width="1" stroke-linejoin="round"/></symbol>
  <symbol id="key" viewBox="0 0 20 20"><g fill="none" stroke="currentColor" stroke-width="1.7" stroke-linecap="round" stroke-linejoin="round"><rect x="2.5" y="5" width="15" height="10" rx="1.5"/><path d="M5.5 8.2h.1M8.5 8.2h.1M11.5 8.2h.1M14.5 8.2h.1M6.5 11.8h7"/></g></symbol>
  <symbol id="lock" viewBox="0 0 20 20"><g fill="none" stroke="currentColor" stroke-width="1.7" stroke-linecap="round" stroke-linejoin="round"><rect x="4" y="8.5" width="12" height="8.5" rx="1.5"/><path d="M6.5 8.5V6.5a3.5 3.5 0 0 1 7 0v2"/></g></symbol>
  <symbol id="copy" viewBox="0 0 20 20"><g fill="none" stroke="currentColor" stroke-width="1.7" stroke-linecap="round" stroke-linejoin="round"><rect x="7" y="7" width="10" height="10.5" rx="1.5"/><path d="M13 7V4a1.5 1.5 0 0 0-1.5-1.5h-7A1.5 1.5 0 0 0 3 4v8.5A1.5 1.5 0 0 0 4.5 14H7"/></g></symbol>
  <symbol id="replay" viewBox="0 0 20 20"><g fill="none" stroke="currentColor" stroke-width="1.8" stroke-linecap="round" stroke-linejoin="round"><path d="M3.5 10a6.5 6.5 0 1 0 2-4.7"/><path d="M3.5 3.5v3.5H7"/></g></symbol>
  <symbol id="select" viewBox="0 0 20 20"><g fill="none" stroke="currentColor" stroke-width="1.7" stroke-linecap="round" stroke-linejoin="round"><rect x="2.5" y="2.5" width="15" height="15" rx="2" stroke-dasharray="2.4 2.1"/><path d="m6.5 10 2.5 2.5 4.5-5"/></g></symbol>
</svg>
